<?xml version="1.0" standalone="no"?>
<!DOCTYPE svg PUBLIC "-//W3C//DTD SVG 20010904//EN"
 "http://www.w3.org/TR/2001/REC-SVG-20010904/DTD/svg10.dtd">
<svg version="1.0" xmlns="http://www.w3.org/2000/svg"
 width="943.000000pt" height="943.000000pt" viewBox="0 0 943.000000 943.000000"
 preserveAspectRatio="xMidYMid meet">
<metadata>
Created by potrace 1.11, written by Peter Selinger 2001-2013
</metadata>
<g transform="translate(0.000000,943.000000) scale(0.100000,-0.100000)"
fill="#000000" stroke="none">
<path d="M4665 9332 c-16 -8 -40 -25 -54 -38 -14 -13 -32 -24 -39 -24 -12 0
-22 -7 -56 -37 -8 -7 -16 -9 -20 -6 -3 4 -6 1 -6 -6 0 -7 -4 -9 -10 -6 -5 3
-10 1 -10 -4 0 -6 -5 -11 -10 -11 -15 0 -210 -125 -242 -155 -15 -14 -31 -25
-36 -25 -9 0 -70 -43 -104 -74 -10 -9 -22 -16 -27 -16 -5 0 -16 -12 -26 -26
-19 -30 -17 -87 10 -224 25 -125 40 -331 26 -355 -3 -5 -6 -35 -7 -65 -1 -55
-15 -293 -18 -318 -3 -20 -73 -89 -86 -84 -3 1 -23 -4 -45 -10 -22 -6 -46 -13
-54 -14 -8 -1 -17 -8 -21 -14 -4 -7 -10 -11 -14 -11 -21 3 -28 -2 -37 -25 -17
-46 -4 -60 82 -89 44 -14 90 -28 101 -30 57 -11 96 -54 81 -91 -3 -7 -111 -74
-241 -149 -131 -75 -244 -140 -252 -145 -47 -28 -484 -278 -530 -303 -30 -16
-62 -35 -70 -42 -8 -7 -42 -27 -75 -45 -33 -17 -78 -43 -100 -56 -22 -13 -51
-28 -65 -34 -14 -6 -32 -17 -40 -25 -8 -7 -40 -25 -70 -41 -30 -15 -62 -33
-70 -39 -8 -7 -40 -26 -70 -42 -30 -17 -72 -40 -92 -52 -97 -55 -116 -65 -153
-86 -34 -18 -183 -104 -235 -135 -8 -5 -73 -42 -143 -82 -71 -40 -145 -83
-165 -95 -69 -40 -87 -50 -112 -64 -142 -80 -251 -210 -264 -314 -3 -27 -6
-895 -6 -1927 -1 -2080 -7 -1908 65 -1958 19 -14 66 -48 103 -76 37 -28 243
-151 457 -274 215 -123 425 -244 469 -269 137 -80 150 -87 211 -121 33 -18 71
-41 84 -52 13 -10 27 -18 32 -18 4 0 59 -30 121 -66 62 -37 129 -76 149 -88
20 -12 157 -91 304 -176 147 -85 291 -168 319 -184 28 -15 62 -35 76 -44 14
-9 45 -27 70 -40 25 -13 61 -33 80 -45 67 -43 75 -48 105 -63 17 -8 46 -25 66
-37 107 -64 479 -277 484 -277 4 0 27 -10 53 -21 41 -19 65 -22 182 -22 117 0
141 3 182 22 26 11 49 21 53 21 5 0 377 213 484 277 20 12 50 29 66 37 30 15
38 20 105 63 19 12 55 32 80 45 25 13 56 31 70 40 14 9 48 29 76 44 28 16 172
99 319 184 147 85 284 164 304 176 20 12 87 51 149 88 62 36 117 66 121 66 5
0 19 8 32 18 13 11 51 34 84 52 61 34 74 41 211 121 44 25 255 146 469 269
215 123 413 241 440 261 28 21 83 74 123 119 l72 81 0 1837 c0 1995 1 1953
-54 2042 -51 81 -130 154 -226 209 -25 14 -45 25 -112 64 -20 12 -94 55 -165
95 -70 40 -135 77 -143 82 -52 31 -201 117 -235 135 -37 21 -56 31 -152 86
-21 12 -63 35 -93 52 -30 16 -62 35 -70 42 -8 6 -40 24 -70 39 -30 16 -62 34
-70 41 -8 8 -26 19 -40 25 -14 6 -43 21 -65 34 -22 13 -67 39 -100 56 -33 18
-67 38 -75 45 -8 7 -40 26 -70 42 -47 26 -485 276 -530 303 -8 5 -112 64 -230
132 -307 176 -322 196 -190 260 80 39 135 89 138 126 3 36 -15 49 -116 82
-116 39 -115 38 -116 242 0 95 3 257 7 360 l7 187 39 78 c25 50 38 88 36 107
-4 30 -50 86 -72 86 -7 0 -17 9 -23 20 -6 11 -17 20 -24 20 -8 0 -17 7 -20 15
-3 9 -19 21 -36 26 -16 6 -30 15 -30 20 0 5 -6 9 -14 9 -8 0 -16 3 -18 8 -4 9
-81 62 -91 62 -3 0 -26 14 -50 30 -25 17 -50 30 -55 30 -6 0 -15 6 -19 13 -4
8 -42 31 -83 53 -41 21 -79 44 -85 51 -14 17 -81 44 -119 47 -18 2 -45 -3 -61
-12z m150 -388 c135 -30 288 -138 337 -239 10 -22 26 -52 34 -67 36 -67 36
-296 0 -368 -28 -55 -52 -94 -67 -110 -8 -9 -22 -25 -30 -36 -18 -26 -129
-104 -195 -138 -43 -22 -68 -28 -145 -31 -79 -3 -106 0 -169 21 -96 31 -116
41 -165 80 -62 49 -79 66 -105 104 -13 19 -27 37 -30 40 -3 3 -18 32 -34 65
-27 54 -29 67 -28 160 3 217 110 390 296 480 106 51 192 63 301 39z m-1240
-2156 c4 -22 4 -904 0 -1958 l-8 -1917 29 -6 c30 -5 282 -92 347 -120 20 -9
37 -14 37 -12 0 3 12 0 28 -6 51 -21 187 -70 337 -121 83 -28 156 -55 163 -61
6 -5 12 -7 12 -4 0 3 30 -6 68 -20 147 -53 172 -55 272 -16 39 15 246 88 335
118 117 40 202 70 340 120 55 20 114 40 130 45 28 7 92 30 140 50 11 5 38 14
60 21 22 7 45 17 50 22 6 5 11 208 12 565 1 656 0 597 16 585 6 -5 46 -20 87
-33 41 -13 79 -27 85 -32 5 -4 17 -8 27 -8 10 0 18 -4 18 -10 0 -5 6 -7 13 -5
9 4 11 -210 9 -1055 -1 -675 1 -1060 7 -1060 6 0 30 13 54 30 24 16 67 42 96
57 29 15 60 33 70 38 9 6 75 44 146 85 72 41 139 81 150 87 11 7 34 19 50 28
17 9 46 25 65 36 51 31 279 163 320 187 92 51 110 66 129 103 21 40 21 42 21
1489 0 1391 -1 1450 -18 1450 -10 0 -34 12 -53 26 -19 14 -47 32 -64 40 -32
15 -47 24 -112 66 -23 16 -52 32 -65 38 -13 5 -30 14 -38 19 -34 22 -248 146
-290 168 -25 13 -58 33 -75 43 -16 11 -37 23 -45 26 -8 4 -63 36 -121 70 -59
35 -109 64 -112 64 -3 0 -26 14 -50 30 -25 17 -50 30 -56 30 -8 0 -11 -150
-11 -529 l0 -530 -47 15 c-27 9 -57 19 -68 24 -34 14 -79 28 -107 34 -16 4
-28 13 -28 21 0 8 -4 15 -10 15 -11 0 -15 1636 -4 1664 5 13 9 13 32 -2 45
-29 65 -41 107 -62 22 -11 54 -29 70 -40 17 -11 44 -27 60 -36 17 -8 48 -26
70 -39 22 -14 54 -32 72 -42 30 -17 701 -404 733 -423 18 -11 236 -136 288
-166 20 -12 53 -31 72 -42 19 -12 46 -27 60 -34 14 -6 32 -17 40 -24 8 -7 42
-26 75 -44 104 -54 150 -86 161 -111 47 -98 44 17 44 -1777 0 -1600 -1 -1679
-19 -1717 -21 -46 -43 -63 -231 -169 -74 -43 -142 -81 -150 -86 -8 -5 -150
-86 -315 -181 -165 -94 -307 -178 -315 -184 -8 -7 -42 -27 -75 -45 -33 -17
-78 -43 -100 -56 -22 -13 -51 -28 -65 -34 -14 -6 -32 -17 -40 -24 -8 -8 -35
-24 -60 -38 -25 -13 -56 -31 -70 -40 -14 -9 -48 -29 -77 -45 -28 -15 -129 -73
-224 -128 -95 -55 -200 -116 -233 -135 -34 -19 -72 -42 -86 -52 -28 -18 -119
-70 -165 -94 -16 -8 -47 -25 -68 -37 -506 -297 -758 -437 -787 -437 -29 0
-281 140 -787 437 -21 12 -51 29 -68 37 -46 24 -137 76 -165 94 -14 10 -52 33
-86 52 -33 19 -138 80 -233 135 -95 55 -196 113 -224 128 -29 16 -63 36 -77
45 -14 9 -45 27 -70 40 -25 14 -52 30 -60 38 -8 7 -26 18 -40 24 -14 6 -43 21
-65 34 -22 13 -67 39 -100 56 -33 18 -67 38 -75 45 -8 6 -150 90 -315 184
-165 95 -307 176 -315 181 -8 5 -76 43 -150 86 -191 108 -210 123 -232 172
-19 42 -19 87 -14 1725 5 1319 8 1690 18 1717 26 70 45 88 183 160 33 18 67
37 75 44 8 7 26 18 40 24 14 7 41 22 60 34 19 11 52 30 72 42 52 30 270 155
288 166 8 5 170 98 358 207 189 109 360 208 380 220 21 12 51 29 67 38 53 28
99 55 130 75 17 11 48 29 70 40 51 26 102 55 140 80 41 26 42 25 50 -22z"/>
<path d="M3250 6075 c-19 -14 -37 -25 -41 -25 -6 0 -200 -109 -249 -141 -8 -5
-24 -14 -35 -19 -11 -6 -33 -19 -50 -30 -16 -11 -41 -24 -54 -30 -13 -6 -44
-24 -68 -40 -24 -17 -47 -30 -50 -30 -3 0 -42 -22 -87 -49 -44 -26 -88 -51
-96 -55 -8 -3 -28 -15 -45 -26 -16 -11 -37 -23 -45 -27 -8 -4 -38 -22 -67 -40
-29 -18 -55 -33 -58 -33 -3 0 -23 -11 -45 -25 l-40 -25 0 -1499 0 -1499 33
-24 c17 -14 55 -37 82 -52 28 -14 57 -30 65 -35 71 -44 189 -111 196 -111 4 0
15 -6 23 -14 9 -8 39 -26 66 -41 28 -14 64 -35 80 -45 17 -11 37 -23 45 -27 8
-4 75 -42 148 -85 73 -43 136 -78 139 -78 4 0 14 -6 22 -14 9 -8 39 -26 66
-40 28 -15 57 -31 65 -36 133 -80 361 -210 366 -210 4 0 15 -6 23 -14 9 -7 39
-26 66 -41 28 -16 61 -35 75 -42 14 -8 39 -23 55 -33 17 -11 39 -24 50 -29 11
-5 54 -29 95 -53 41 -24 82 -47 90 -51 8 -4 33 -18 55 -32 22 -14 49 -30 60
-35 11 -6 34 -19 50 -30 17 -11 37 -23 45 -27 8 -3 68 -37 133 -75 143 -85
308 -152 349 -143 33 8 136 61 253 130 44 26 89 51 100 56 11 5 34 18 50 29
17 11 39 24 50 29 11 5 66 36 123 70 57 34 106 61 110 61 3 0 13 6 21 14 9 7
48 30 86 51 39 20 77 43 85 50 8 6 22 14 30 17 8 3 69 38 135 77 l120 71 1
462 c0 279 -3 465 -9 469 -5 4 -32 -2 -61 -13 -28 -11 -85 -31 -126 -45 -41
-14 -88 -31 -105 -38 -16 -7 -50 -18 -75 -26 -25 -7 -49 -16 -55 -19 -5 -4
-30 -12 -55 -19 -25 -6 -54 -16 -65 -21 -29 -13 -166 -61 -190 -67 -21 -5 -42
-13 -85 -31 -14 -6 -43 -16 -65 -23 -22 -7 -53 -18 -70 -25 -16 -7 -43 -16
-60 -20 -16 -4 -34 -10 -40 -14 -5 -4 -35 -14 -66 -24 -52 -16 -59 -16 -100
-1 -24 9 -98 34 -164 56 -66 22 -129 44 -140 49 -11 5 -40 16 -65 24 -25 8
-97 34 -160 56 -63 23 -124 44 -135 47 -11 2 -29 8 -40 13 -11 4 -33 13 -50
18 -16 6 -39 13 -50 17 -81 30 -248 88 -285 99 -25 8 -62 21 -83 30 -21 9 -80
31 -132 48 l-95 31 0 1673 c0 921 -4 1674 -8 1674 -4 0 -23 -11 -42 -25z"/>
</g>
</svg>
