<svg xmlns="http://www.w3.org/2000/svg" xmlns:xlink="http://www.w3.org/1999/xlink" id="Layer_1" x="0" y="0" version="1.1" viewBox="0 0 998.3 917.2" xml:space="preserve" style="enable-background:new 0 0 998.3 917.2"><style type="text/css">.st0{fill-rule:evenodd;clip-rule:evenodd}.st0,.st1{fill:#312868}</style><g><g><path d="M152,153.9c-12.1,7.8-22.8,15.3-23.6,16.7c-1.1,1.7-0.8,4.1,1.1,8.3c2.3,4.9,2.6,9.8,2.3,29.5l-0.5,23.6 l-8.4,2.4c-7.7,2.1-8.4,2.8-8.9,7.2c-0.5,4.9-0.3,4.9,8.7,6.7c14.1,2.9,12.7,5.8-6.3,13l-15.8,6l-0.5,15 c-0.3,8.9,0.3,16.1,1.4,18.1c0.9,1.8,6.1,5.2,11.5,7.6c10.1,4.6,10.9,5.7,9.9,15.1c-0.3,2.1-7.8,53.4-17,114 C97,497.8,89.7,547.6,90,547.9c0.2,0.2,7.2-8.1,15.5-18.4c34.1-42.4,65.2-68.1,94-77.8c13.3-4.4,31.1-4.6,43.6-0.3 c5,1.7,9.3,2.9,9.5,2.8c0.3-0.1-5.2-30.9-11.9-68.3c-9.6-52.3-12.1-68.6-10.9-71.2c1.1-2.3,4.9-4.7,10.9-7c5.2-2,9.3-4.4,9.3-5.4 s1.1-2.6,2.3-3.7c1.7-1.5,2.3-5.4,2.3-16.8v-15l-18.4-6.4c-10.1-3.5-18.4-7.4-18.4-8.3s3.5-3.2,7.6-5.1c6.6-2.9,7.6-4,7.6-7.6 c0-4.1-0.8-4.6-7.6-6.4l-7.6-2v-23.7c0-21.4,0.3-24,3.1-27.6c6.4-8.1,4.9-9.8-25.9-28.6c-10.6-6.4-19.4-11.6-19.9-11.6 C174.5,139.6,164.2,146,152,153.9z M190.6,173.1c16.7,11.5,18.1,35.2,2.9,48.1c-23.4,19.6-58.5-5.8-46.7-33.8 c2.9-7,9-13.8,15.1-16.5C169,167.4,184.1,168.6,190.6,173.1z" class="st0"/><path d="M162.4,174.8c-3.1,1.7-7,4.7-8.7,7c-3.5,4.4-6.9,15-5.8,17.9c0.5,1.1,1.2-0.3,1.8-2.8 c2.9-12.9,10.3-21.4,19.4-22.8c2.8-0.5,6.7-1.1,8.9-1.4c2.1-0.5,0.8-0.8-3.1-0.8C170.8,171.8,165.8,173.1,162.4,174.8z" class="st0"/></g></g><g><path d="M356.7,275v21.2h-55.1V186.1h22.4V275H356.7z" class="st1"/><path d="M364.5,188.8c0-6.8,4.9-11.8,11.8-11.8c6.6,0,11.8,5,11.8,11.8c0,6.3-5.2,11.8-11.8,11.8 C369.4,200.6,364.5,195.4,364.5,188.8z M365.5,212.8H387v83.4h-21.6V212.8z" class="st1"/><path d="M462.1,212.8v86.1c0,16.8-10.9,27.9-29.4,27.9c-18.3,0-28.6-11-29.1-27.9h21.2c0.5,4.7,2.8,7.9,7.9,7.9 c4.9,0,7.5-3.1,7.5-7.9v-10.4c-3.6,2.2-7.9,3.5-12.6,3.5c-15.4,0-26.8-13.2-26.8-31.2v-18.6c0-18.3,11.3-31.5,26.8-31.5 c7.2,0,13.7,2.4,18.4,6.9l1.4-4.9L462.1,212.8L462.1,212.8z M440.2,260.8v-18.6c0-7.1-3.1-10.7-9.1-10.7c-5.7,0-8.5,3.6-8.5,10.7 v18.6c0,7.1,2.8,10.9,8.5,10.9C437.1,271.7,440.2,267.9,440.2,260.8z" class="st1"/><path d="M537.8,245.1v51.1h-21.6v-51.1c0-10.2-2.8-13.9-8-13.9c-5.5,0-9,4.1-9,12.3v52.7h-21.4V182.1h21.4v36.5 c3.8-4.9,8.8-7.9,15-7.9C529,210.8,537.8,222.4,537.8,245.1z" class="st1"/><path d="M592.9,277.4v20.1H586c-17.9,0-29.1-11.8-29.1-30.4v-34.9H546v-19.4h10.9v-20.1h21.2v20.1h13.7v19.4h-13.7 v35.3c0,6.9,3,9.9,9.4,9.9L592.9,277.4L592.9,277.4z" class="st1"/><path d="M671.6,265.1v-21.2c0-21.2,11.5-33.1,31-33.1s31,11.8,31,33.1v21.2c0,21.2-11.5,33.2-31,33.2 S671.6,286.3,671.6,265.1z M711.7,265.1v-21.2c0-8.6-3.2-12.3-9.1-12.3s-9.1,3.6-9.1,12.3v21.2c0,8.7,3.2,12.4,9.1,12.4 S711.7,273.7,711.7,265.1z" class="st1"/><path d="M807.6,212.8v83.4h-14.2l-1.6-8.5c-4.3,6.9-11,10.5-19.7,10.5c-15.4,0-24.5-11.6-24.5-34.3v-51.1h21.6V264 c0,10.2,2.8,13.9,8,13.9c5.5,0,9-4.1,9-12.3v-52.7L807.6,212.8L807.6,212.8z" class="st1"/><path d="M815.7,269.6h21.4c0.3,4.1,2.4,9.4,10.2,9.4c5.7,0,9-2.7,9-6.6c0-13.1-39.2-9.3-39.2-37.4 c0-15.3,11.2-24.2,28.8-24.2c20,0,28.2,12,29.4,27.7h-20.6c-0.5-5.4-2.7-8.8-8.8-8.8c-4.6,0-7.5,2.2-7.5,5.4 c0,11.6,39.3,7.1,39.3,37.3c0,15.7-10.9,26.3-29.6,26.3C826.4,298.6,816.2,284.4,815.7,269.6z" class="st1"/><path d="M948,269.6c-1.7,17.9-13.1,28.5-31.3,28.5c-18.7,0-29.9-12.3-29.9-32.9V243c0-20.3,11.2-32.3,30.2-32.3 c19.4,0,30.7,12,30.7,32.3v18.7h-39.3v3.5c0,8.6,3,12.4,8.7,12.4c6.1,0,7.9-2.4,9.3-8L948,269.6L948,269.6z M908.4,242.7v4.4h18.1 v-4.4c0-8.5-3.2-12.1-9.3-12.1C911.4,230.6,908.4,234.2,908.4,242.7z" class="st1"/><path d="M369.3,374.9v110.1h-22.5v-44.9h-22.7v44.9h-22.5V374.9h22.5V419h22.7v-44.1H369.3z" class="st1"/><path d="M443.8,432v53h-17l-1.3-7.9c-3,5.7-8.6,10.1-18.1,10.1c-15.4,0-24.9-11-24.9-26.1c0-17.8,13.4-26.1,32-26.1 h7.7v-3c0-7.4-1.6-11.8-7.4-11.8c-3.8,0-7.5,1.9-8.3,7.4H385c0.8-17.6,12-28,30.2-28C435.2,399.6,443.8,410.8,443.8,432z M422.3,452.2H415c-6.5,0-10.5,3-10.5,9c0,4.1,2.2,7.9,8.2,7.9c5.8,0,9.6-3.8,9.6-10.2V452.2z" class="st1"/><path d="M457.7,455.6v-24.9c0-19.5,11-31.2,29.7-31.2c19.8,0,30.1,11.6,30.7,31.2h-21.6c-0.3-7.1-3.2-10.7-8.7-10.7 s-8.5,3.6-8.5,10.7v24.9c0,7.1,3,10.9,8.5,10.9c5.7,0,8.3-3.8,8.8-10.9h21.6c-0.5,19.7-12,31.3-30.8,31.3 C468.7,487,457.7,475.3,457.7,455.6z" class="st1"/><path d="M553.7,451.6l-3.9,3.9v29.6h-21.3V371h21.2v56.3l15.4-25.6h24.7l-22,33l25.7,50.4h-23.9L553.7,451.6z" class="st1"/><path d="M595.4,458.5h21.4c0.3,4.1,2.4,9.4,10.2,9.4c5.7,0,9-2.7,9-6.6c0-13.1-39.2-9.3-39.2-37.5 c0-15.3,11.2-24.2,28.8-24.2c20,0,28.2,12,29.4,27.7h-20.6c-0.5-5.4-2.7-8.8-8.8-8.8c-4.6,0-7.5,2.2-7.5,5.4 c0,11.6,39.3,7.1,39.3,37.3c0,15.7-10.9,26.3-29.6,26.3C606.1,487.4,595.8,473.3,595.4,458.5z" class="st1"/></g><g><g><path d="M499.2,686.7c-11.4,0-20.3-8.9-20.3-20.3s8.9-20.3,20.3-20.3c11.4,0,20.3,8.9,20.3,20.3 S510.5,686.7,499.2,686.7z" class="st1"/></g><path d="M945.6,0H52.8C23.5,0,0,23.5,0,52.8v649.3c0,29.2,23.5,52.8,52.8,52.8h314.1c-5.7,50.3-47.9,89.3-99.8,89.3 h-34.1H224c-33.3,0-60.9,27.6-60.9,60.9c0,6.5,5.7,12.2,12.2,12.2h649.3c6.5,0,12.2-5.7,12.2-12.2c0-33.3-27.6-60.9-60.9-60.9h-7.3 h-26h-7.3c-51.1,0-94.2-39-99.8-89.3h310c29.2,0,52.8-23.5,52.8-52.8V52.8C998.3,23.5,974.8,0,945.6,0z M735.3,868.5h7.3h17.9h15.4 c16.2,0,29.2,10.5,34.1,24.3H189.9c4.9-13.8,18.7-24.3,34.1-24.3h8.9H267h233.8c6.5,0,12.2-5.7,12.2-12.2s-5.7-12.2-12.2-12.2 H340.9c27.6-20.3,46.3-52,50.3-87.7h220C617.7,819,670.4,868.5,735.3,868.5z M974,702.1c0,15.4-13,28.4-28.4,28.4H52.8 c-15.4,0-28.4-13-28.4-28.4V600.6H905c6.5,0,12.2-5.7,12.2-12.2s-5.7-12.2-12.2-12.2H24.4V52.8c0-15.4,13-28.4,28.4-28.4h892.8 c15.4,0,28.4,13,28.4,28.4V702.1z" class="st1"/></g><g><path d="M662.3,245v51h-21.5v-51c0-10.2-2.8-13.8-8-13.8c-5.5,0-8.9,4.1-8.9,12.2V296h-21.4V182.2h21.4v36.4 c3.8-4.9,8.8-7.8,14.9-7.8C653.5,210.8,662.3,222.4,662.3,245z" class="st1"/></g></svg>