<?xml version="1.0" encoding="utf-8"?>
<!-- Generator: Adobe Illustrator 23.0.2, SVG Export Plug-In . SVG Version: 6.00 Build 0)  -->
<svg version="1.1" id="Layer_1" xmlns="http://www.w3.org/2000/svg" xmlns:xlink="http://www.w3.org/1999/xlink" x="0px" y="0px"
	 viewBox="0 0 998.32 917.15" style="enable-background:new 0 0 998.32 917.15;" xml:space="preserve">
<style type="text/css">
	.st0{fill-rule:evenodd;clip-rule:evenodd;fill:#312868;}
	.st1{fill:#312868;}
</style>
<g>
	<g>
		<path class="st0" d="M161.98,153.94c-12.09,7.81-22.8,15.3-23.57,16.68c-1.07,1.68-0.77,4.13,1.07,8.26
			c2.3,4.9,2.6,9.79,2.3,29.54l-0.46,23.57l-8.42,2.45c-7.65,2.14-8.42,2.75-8.88,7.19c-0.46,4.9-0.31,4.9,8.72,6.73
			c14.08,2.91,12.7,5.82-6.27,13.01l-15.76,5.97l-0.46,15c-0.31,8.88,0.31,16.07,1.38,18.06c0.92,1.84,6.12,5.2,11.48,7.65
			c10.1,4.59,10.87,5.66,9.95,15.15c-0.31,2.14-7.81,53.41-16.99,114.02c-9.03,60.61-16.38,110.34-16.07,110.65
			c0.15,0.15,7.19-8.11,15.46-18.37c34.13-42.39,65.2-68.1,93.97-77.75c13.31-4.44,31.07-4.59,43.62-0.31
			c5.05,1.68,9.34,2.91,9.49,2.75c0.31-0.15-5.2-30.91-11.94-68.26c-9.64-52.34-12.09-68.56-10.87-71.17
			c1.07-2.3,4.9-4.74,10.87-7.04c5.2-1.99,9.34-4.44,9.34-5.36s1.07-2.6,2.3-3.67c1.68-1.53,2.3-5.36,2.3-16.83v-15l-18.37-6.43
			c-10.1-3.52-18.37-7.35-18.37-8.26s3.52-3.21,7.65-5.05c6.58-2.91,7.65-3.98,7.65-7.65c0-4.13-0.77-4.59-7.65-6.43l-7.65-1.99
			v-23.72c0-21.43,0.31-24.03,3.06-27.55c6.43-8.11,4.9-9.79-25.86-28.62c-10.56-6.43-19.44-11.63-19.9-11.63
			C184.48,139.55,174.23,145.98,161.98,153.94z M200.55,173.07c16.68,11.48,18.06,35.2,2.91,48.06
			c-23.42,19.59-58.46-5.82-46.68-33.82c2.91-7.04,9.03-13.77,15.15-16.53C178.97,167.41,194.12,168.63,200.55,173.07z"/>
		<path class="st0" d="M172.39,174.75c-3.06,1.68-7.04,4.74-8.72,7.04c-3.52,4.44-6.89,15-5.82,17.91c0.46,1.07,1.22-0.31,1.84-2.75
			c2.91-12.86,10.25-21.43,19.44-22.8c2.75-0.46,6.73-1.07,8.88-1.38c2.14-0.46,0.77-0.77-3.06-0.77
			C180.81,171.84,175.76,173.07,172.39,174.75z"/>
	</g>
</g>
<g>
	<path class="st1" d="M388.67,275v21.24h-55.08V186.09h22.35V275H388.67z"/>
	<path class="st1" d="M396.53,188.76c0-6.77,4.88-11.8,11.8-11.8c6.61,0,11.8,5.04,11.8,11.8c0,6.29-5.19,11.8-11.8,11.8
		C401.41,200.56,396.53,195.37,396.53,188.76z M397.48,212.84h21.56v83.4h-21.56V212.84z"/>
	<path class="st1" d="M494.1,212.84v86.08c0,16.84-10.86,27.85-29.43,27.85c-18.25,0-28.64-11.02-29.11-27.85h21.24
		c0.47,4.72,2.83,7.87,7.87,7.87c4.88,0,7.55-3.15,7.55-7.87v-10.39c-3.62,2.2-7.87,3.46-12.59,3.46
		c-15.42,0-26.75-13.22-26.75-31.16v-18.57c0-18.25,11.33-31.47,26.75-31.47c7.24,0,13.69,2.36,18.41,6.92l1.42-4.88H494.1z
		 M472.23,260.83v-18.57c0-7.08-3.15-10.7-9.13-10.7c-5.67,0-8.5,3.62-8.5,10.7v18.57c0,7.08,2.83,10.86,8.5,10.86
		C469.08,271.69,472.23,267.91,472.23,260.83z"/>
	<path class="st1" d="M569.79,245.1v51.14h-21.56V245.1c0-10.23-2.83-13.85-8.03-13.85c-5.51,0-8.97,4.09-8.97,12.27v52.72h-21.4
		V182.15h21.4v36.51c3.78-4.88,8.81-7.87,14.95-7.87C560.98,210.79,569.79,222.44,569.79,245.1z"/>
	<path class="st1" d="M624.87,277.36v20.14h-6.92c-17.94,0-29.11-11.8-29.11-30.37v-34.93h-10.86v-19.36h10.86v-20.14h21.24v20.14
		h13.69v19.36h-13.69v35.25c0,6.92,2.99,9.91,9.44,9.91H624.87z"/>
	<path class="st1" d="M635.56,265.08v-21.24c0-21.24,11.49-33.05,31-33.05s31,11.8,31,33.05v21.24c0,21.24-11.49,33.2-31,33.2
		S635.56,286.33,635.56,265.08z M675.69,265.08v-21.24c0-8.65-3.15-12.27-9.13-12.27s-9.13,3.62-9.13,12.27v21.24
		c0,8.66,3.15,12.43,9.13,12.43S675.69,273.74,675.69,265.08z"/>
	<path class="st1" d="M770.58,212.84v83.4h-14.16l-1.57-8.5c-4.25,6.92-11.02,10.54-19.67,10.54c-15.42,0-24.55-11.65-24.55-34.31
		v-51.14h21.56v51.14c0,10.23,2.83,13.85,8.03,13.85c5.51,0,8.97-4.09,8.97-12.27v-52.72H770.58z"/>
	<path class="st1" d="M779.71,269.65h21.4c0.31,4.09,2.36,9.44,10.23,9.44c5.67,0,8.97-2.67,8.97-6.61
		c0-13.06-39.18-9.28-39.18-37.45c0-15.26,11.17-24.23,28.8-24.23c19.98,0,28.17,11.96,29.43,27.7h-20.62
		c-0.47-5.35-2.67-8.81-8.81-8.81c-4.56,0-7.55,2.2-7.55,5.35c0,11.64,39.34,7.08,39.34,37.29c0,15.74-10.86,26.28-29.58,26.28
		C790.41,298.6,780.18,284.44,779.71,269.65z"/>
	<path class="st1" d="M912.05,269.65c-1.73,17.94-13.06,28.48-31.32,28.48c-18.73,0-29.9-12.27-29.9-32.89v-22.19
		c0-20.3,11.17-32.26,30.21-32.26c19.36,0,30.69,11.96,30.69,32.26v18.73h-39.34v3.46c0,8.65,2.99,12.43,8.65,12.43
		c6.14,0,7.87-2.36,9.29-8.03H912.05z M872.39,242.74v4.41h18.1v-4.41c0-8.5-3.15-12.12-9.29-12.12
		C875.38,230.62,872.39,234.24,872.39,242.74z"/>
	<path class="st1" d="M401.26,374.92v110.15h-22.5v-44.85h-22.66v44.85h-22.5V374.92h22.5v44.06h22.66v-44.06H401.26z"/>
	<path class="st1" d="M475.84,432.04v53.03h-17l-1.26-7.87c-2.99,5.67-8.65,10.07-18.1,10.07c-15.42,0-24.86-11.02-24.86-26.12
		c0-17.78,13.38-26.12,31.95-26.12h7.71v-2.99c0-7.4-1.57-11.8-7.4-11.8c-3.78,0-7.55,1.89-8.34,7.4h-21.56
		c0.79-17.62,11.96-28.01,30.21-28.01C467.19,399.63,475.84,410.8,475.84,432.04z M454.28,452.19h-7.24
		c-6.45,0-10.54,2.99-10.54,8.97c0,4.09,2.2,7.87,8.18,7.87c5.82,0,9.6-3.78,9.6-10.23V452.19z"/>
	<path class="st1" d="M489.69,455.65v-24.86c0-19.51,11.02-31.16,29.74-31.16c19.83,0,30.06,11.65,30.69,31.16h-21.56
		c-0.32-7.08-3.15-10.7-8.66-10.7s-8.5,3.62-8.5,10.7v24.86c0,7.08,2.99,10.86,8.5,10.86c5.67,0,8.34-3.78,8.81-10.86h21.56
		c-0.47,19.67-11.96,31.32-30.84,31.32C500.7,486.96,489.69,475.32,489.69,455.65z"/>
	<path class="st1" d="M585.68,451.56l-3.93,3.93v29.58H560.5V370.99h21.24v56.34l15.42-25.65h24.71l-22.03,33.05l25.65,50.36h-23.92
		L585.68,451.56z"/>
	<path class="st1" d="M627.38,458.48h21.4c0.31,4.09,2.36,9.44,10.23,9.44c5.67,0,8.97-2.67,8.97-6.61
		c0-13.06-39.18-9.28-39.18-37.45c0-15.26,11.17-24.23,28.8-24.23c19.98,0,28.17,11.96,29.43,27.7H666.4
		c-0.47-5.35-2.67-8.81-8.81-8.81c-4.56,0-7.55,2.2-7.55,5.35c0,11.64,39.34,7.08,39.34,37.29c0,15.74-10.86,26.28-29.58,26.28
		C638.08,487.44,627.85,473.27,627.38,458.48z"/>
</g>
<g>
	<g>
		<path class="st1" d="M499.16,686.65c-11.36,0-20.29-8.93-20.29-20.29s8.93-20.29,20.29-20.29c11.36,0,20.29,8.93,20.29,20.29
			S510.52,686.65,499.16,686.65z"/>
	</g>
	<path class="st1" d="M945.56,0H52.76C23.54,0,0,23.54,0,52.76v649.31c0,29.22,23.54,52.76,52.76,52.76h314.1
		c-5.68,50.32-47.89,89.28-99.83,89.28h-34.09h-8.93c-33.28,0-60.87,27.6-60.87,60.87c0,6.49,5.68,12.17,12.17,12.17h649.31
		c6.49,0,12.17-5.68,12.17-12.17c0-33.28-27.6-60.87-60.87-60.87h-7.3h-25.97h-7.3c-51.13,0-94.15-38.96-99.83-89.28h310.05
		c29.22,0,52.76-23.54,52.76-52.76V52.76C998.32,23.54,974.78,0,945.56,0z M735.35,868.46h7.3h17.86h15.42
		c16.23,0,29.22,10.55,34.09,24.35H189.92c4.87-13.8,18.67-24.35,34.09-24.35h8.93h34.09h233.75c6.49,0,12.17-5.68,12.17-12.17
		c0-6.49-5.68-12.17-12.17-12.17H340.89c27.6-20.29,46.26-51.95,50.32-87.66h219.95C617.66,818.95,670.42,868.46,735.35,868.46z
		 M973.97,702.07c0,15.42-12.99,28.41-28.41,28.41H52.76c-15.42,0-28.41-12.99-28.41-28.41V600.61h880.63
		c6.49,0,12.17-5.68,12.17-12.17c0-6.49-5.68-12.17-12.17-12.17H24.35V52.76c0-15.42,12.99-28.41,28.41-28.41h892.8
		c15.42,0,28.41,12.99,28.41,28.41V702.07z"/>
</g>
<g>
</g>
<g>
</g>
<g>
</g>
<g>
</g>
<g>
</g>
<g>
</g>
</svg>
